<svg width="847" height="655" viewBox="0 0 847 655" fill="none" xmlns="http://www.w3.org/2000/svg">
<g clip-path="url(#clip0)">
<path opacity="0.1" d="M348.097 645.353C405.348 609.353 470.749 597.848 534.663 613.278C625.231 635.156 739.057 626.58 761.105 457.791C798.759 169.524 640.964 93.4391 640.964 93.4391C640.964 93.4391 536.03 83.4537 473.98 45.4367C385.841 -8.58395 285.097 -15.4631 196.512 30.2434C139.863 59.4483 93.2121 100.116 85.2414 155.951C62.956 312.104 99.556 398.141 31.0879 449.114C-37.3801 500.088 21.1338 640.035 73.6233 635.19C126.113 630.345 244.723 577.194 290.943 638.76C307.36 660.596 328.13 657.912 348.097 645.353Z" fill="#4DA8DA"/>
<path opacity="0.1" d="M619.734 126.788H383.509V145.358H619.734V126.788Z" fill="#4DA8DA"/>
<path opacity="0.1" d="M619.734 206.975H383.509V225.545H619.734V206.975Z" fill="#4DA8DA"/>
<path opacity="0.1" d="M619.734 290.538H383.509V309.108H619.734V290.538Z" fill="#4DA8DA"/>
<path opacity="0.1" d="M419.165 78.676H404.309V126.788H419.165V78.676Z" fill="#4DA8DA"/>
<path opacity="0.1" d="M419.165 86.2726H404.309V89.6489H419.165V86.2726Z" fill="#4DA8DA"/>
<path opacity="0.1" d="M419.165 112.439H404.309V115.815H419.165V112.439Z" fill="#4DA8DA"/>
<path opacity="0.1" d="M441.451 78.676H426.594V126.788H441.451V78.676Z" fill="#4DA8DA"/>
<path opacity="0.1" d="M441.451 86.2726H426.594V89.6489H441.451V86.2726Z" fill="#4DA8DA"/>
<path opacity="0.1" d="M441.451 112.439H426.594V115.815H441.451V112.439Z" fill="#4DA8DA"/>
<path opacity="0.1" d="M463.736 78.676H448.879V126.788H463.736V78.676Z" fill="#4DA8DA"/>
<path opacity="0.1" d="M463.736 86.2726H448.879V89.6489H463.736V86.2726Z" fill="#4DA8DA"/>
<path opacity="0.1" d="M463.736 112.439H448.879V115.815H463.736V112.439Z" fill="#4DA8DA"/>
<path opacity="0.1" d="M486.022 78.676H471.165V126.788H486.022V78.676Z" fill="#4DA8DA"/>
<path opacity="0.1" d="M486.022 86.2726H471.165V89.6489H486.022V86.2726Z" fill="#4DA8DA"/>
<path opacity="0.1" d="M486.022 112.439H471.165V115.815H486.022V112.439Z" fill="#4DA8DA"/>
<path opacity="0.1" d="M508.307 78.676H493.45V126.788H508.307V78.676Z" fill="#4DA8DA"/>
<path opacity="0.1" d="M508.307 86.2726H493.45V89.6489H508.307V86.2726Z" fill="#4DA8DA"/>
<path opacity="0.1" d="M508.307 112.439H493.45V115.815H508.307V112.439Z" fill="#4DA8DA"/>
<path opacity="0.1" d="M530.592 78.676H515.735V126.788H530.592V78.676Z" fill="#4DA8DA"/>
<path opacity="0.1" d="M530.592 86.2726H515.735V89.6489H530.592V86.2726Z" fill="#4DA8DA"/>
<path opacity="0.1" d="M530.592 112.439H515.735V115.815H530.592V112.439Z" fill="#4DA8DA"/>
<path opacity="0.1" d="M552.878 78.676H538.021V126.788H552.878V78.676Z" fill="#4DA8DA"/>
<path opacity="0.1" d="M552.878 86.2726H538.021V89.6489H552.878V86.2726Z" fill="#4DA8DA"/>
<path opacity="0.1" d="M552.878 112.439H538.021V115.815H552.878V112.439Z" fill="#4DA8DA"/>
<path opacity="0.1" d="M544.083 241.16L530.802 248.726L549.781 291.735L563.061 284.168L544.083 241.16Z" fill="#4DA8DA"/>
<path opacity="0.1" d="M547.083 247.956L533.802 255.523L535.134 258.541L548.415 250.974L547.083 247.956Z" fill="#4DA8DA"/>
<path opacity="0.1" d="M557.399 271.349L544.118 278.916L545.45 281.934L558.731 274.367L557.399 271.349Z" fill="#4DA8DA"/>
<path opacity="0.1" d="M419.165 159.707H404.309V207.819H419.165V159.707Z" fill="#4DA8DA"/>
<path opacity="0.1" d="M419.165 167.304H404.309V170.68H419.165V167.304Z" fill="#4DA8DA"/>
<path opacity="0.1" d="M419.165 193.47H404.309V196.846H419.165V193.47Z" fill="#4DA8DA"/>
<path opacity="0.1" d="M441.451 159.707H426.594V207.819H441.451V159.707Z" fill="#4DA8DA"/>
<path opacity="0.1" d="M441.451 167.304H426.594V170.68H441.451V167.304Z" fill="#4DA8DA"/>
<path opacity="0.1" d="M441.451 193.47H426.594V196.846H441.451V193.47Z" fill="#4DA8DA"/>
<path opacity="0.1" d="M463.736 159.707H448.879V207.819H463.736V159.707Z" fill="#4DA8DA"/>
<path opacity="0.1" d="M463.736 167.304H448.879V170.68H463.736V167.304Z" fill="#4DA8DA"/>
<path opacity="0.1" d="M463.736 193.47H448.879V196.846H463.736V193.47Z" fill="#4DA8DA"/>
<path opacity="0.1" d="M556.592 159.707H541.735V207.819H556.592V159.707Z" fill="#4DA8DA"/>
<path opacity="0.1" d="M556.592 167.304H541.735V170.68H556.592V167.304Z" fill="#4DA8DA"/>
<path opacity="0.1" d="M556.592 193.47H541.735V196.846H556.592V193.47Z" fill="#4DA8DA"/>
<path opacity="0.1" d="M578.877 159.707H564.02V207.819H578.877V159.707Z" fill="#4DA8DA"/>
<path opacity="0.1" d="M578.877 167.304H564.02V170.68H578.877V167.304Z" fill="#4DA8DA"/>
<path opacity="0.1" d="M578.877 193.47H564.02V196.846H578.877V193.47Z" fill="#4DA8DA"/>
<path opacity="0.1" d="M601.163 159.707H586.306V207.819H601.163V159.707Z" fill="#4DA8DA"/>
<path opacity="0.1" d="M601.163 167.304H586.306V170.68H601.163V167.304Z" fill="#4DA8DA"/>
<path opacity="0.1" d="M601.163 193.47H586.306V196.846H601.163V193.47Z" fill="#4DA8DA"/>
<path opacity="0.1" d="M419.165 242.426H404.309V290.538H419.165V242.426Z" fill="#4DA8DA"/>
<path opacity="0.1" d="M419.165 250.023H404.309V253.399H419.165V250.023Z" fill="#4DA8DA"/>
<path opacity="0.1" d="M419.165 276.189H404.309V279.565H419.165V276.189Z" fill="#4DA8DA"/>
<path opacity="0.1" d="M441.451 242.426H426.594V290.538H441.451V242.426Z" fill="#4DA8DA"/>
<path opacity="0.1" d="M441.451 250.023H426.594V253.399H441.451V250.023Z" fill="#4DA8DA"/>
<path opacity="0.1" d="M441.451 276.189H426.594V279.565H441.451V276.189Z" fill="#4DA8DA"/>
<path opacity="0.1" d="M463.736 242.426H448.879V290.538H463.736V242.426Z" fill="#4DA8DA"/>
<path opacity="0.1" d="M463.736 250.023H448.879V253.399H463.736V250.023Z" fill="#4DA8DA"/>
<path opacity="0.1" d="M463.736 276.189H448.879V279.565H463.736V276.189Z" fill="#4DA8DA"/>
<path opacity="0.1" d="M486.022 242.426H471.165V290.538H486.022V242.426Z" fill="#4DA8DA"/>
<path opacity="0.1" d="M486.022 250.023H471.165V253.399H486.022V250.023Z" fill="#4DA8DA"/>
<path opacity="0.1" d="M486.022 276.189H471.165V279.565H486.022V276.189Z" fill="#4DA8DA"/>
<path opacity="0.1" d="M508.307 242.426H493.45V290.538H508.307V242.426Z" fill="#4DA8DA"/>
<path opacity="0.1" d="M508.307 250.023H493.45V253.399H508.307V250.023Z" fill="#4DA8DA"/>
<path opacity="0.1" d="M508.307 276.189H493.45V279.565H508.307V276.189Z" fill="#4DA8DA"/>
<path opacity="0.1" d="M530.592 242.426H515.735V290.538H530.592V242.426Z" fill="#4DA8DA"/>
<path opacity="0.1" d="M530.592 250.023H515.735V253.399H530.592V250.023Z" fill="#4DA8DA"/>
<path opacity="0.1" d="M530.592 276.189H515.735V279.565H530.592V276.189Z" fill="#4DA8DA"/>
<path opacity="0.1" d="M575.163 82.9639V126.788H560.306V79.7479C565.278 80.7439 570.231 81.8159 575.163 82.9639Z" fill="#4DA8DA"/>
<path opacity="0.1" d="M575.163 86.2726H560.306V89.6489H575.163V86.2726Z" fill="#4DA8DA"/>
<path opacity="0.1" d="M575.163 112.439H560.306V115.815H575.163V112.439Z" fill="#4DA8DA"/>
<path opacity="0.1" d="M597.448 88.8217V126.805H582.592V84.7702C584.523 85.2513 586.447 85.7577 588.371 86.2726C591.412 87.0829 594.437 87.9326 597.448 88.8217Z" fill="#4DA8DA"/>
<path opacity="0.1" d="M597.448 88.8217V89.6658H582.592V86.2895H588.371C591.412 87.0886 594.437 87.9326 597.448 88.8217Z" fill="#4DA8DA"/>
<path opacity="0.1" d="M597.448 112.439H582.592V115.815H597.448V112.439Z" fill="#4DA8DA"/>
<g opacity="0.1">
<path opacity="0.1" d="M493.74 190.33C493.74 190.33 489.238 188.591 487.054 193.107C486.483 194.329 486.193 195.696 486.209 197.08C486.226 198.463 486.55 199.82 487.151 201.024C488.577 203.945 491.511 207.777 497.068 207.405C501.785 207.118 503.352 203.033 503.753 199.226C503.907 197.802 503.739 196.357 503.265 195.028C502.791 193.698 502.026 192.528 501.043 191.627C500.06 190.727 498.892 190.126 497.648 189.881C496.403 189.636 495.125 189.756 493.933 190.229L493.74 190.33Z" fill="#4DA8DA"/>
<path opacity="0.1" d="M488.131 201.438C487.531 200.234 487.207 198.877 487.19 197.493C487.173 196.109 487.464 194.743 488.035 193.52C490.204 189.013 494.72 190.743 494.72 190.743L494.951 190.651C496.669 189.944 498.558 189.992 500.247 190.786C499.315 190.155 498.271 189.767 497.19 189.65C496.11 189.533 495.02 189.691 494 190.11L493.77 190.203C493.77 190.203 489.268 188.464 487.084 192.98C486.513 194.203 486.222 195.569 486.239 196.953C486.256 198.337 486.58 199.694 487.18 200.898C488.297 203.316 490.09 205.243 492.276 206.376C490.523 205.192 489.089 203.484 488.131 201.438Z" fill="#4DA8DA"/>
<path opacity="0.2" d="M491.415 192.499C491.415 192.499 493.086 193.993 497.142 192.499H491.415Z" fill="#4DA8DA"/>
<path opacity="0.1" d="M491.051 181.654C491.051 181.654 493.911 190.466 493.673 192.77L495.939 192.5C495.939 192.5 492.12 184.777 493.079 181.654H491.051Z" fill="#4DA8DA"/>
<path opacity="0.2" d="M491.051 181.654C491.051 181.654 493.911 190.466 493.673 192.77L495.939 192.5C495.939 192.5 492.12 184.777 493.079 181.654H491.051Z" fill="#4DA8DA"/>
<path opacity="0.1" d="M502.743 182.396C502.743 182.396 498.234 179.779 496.221 181.94C494.208 184.101 493.896 189.629 493.896 189.629C493.896 189.629 501.242 190.76 502.743 182.396Z" fill="#4DA8DA"/>
<path opacity="0.1" d="M502.743 182.396C502.743 182.396 498.234 179.779 496.221 181.94C494.208 184.101 493.896 189.629 493.896 189.629C493.896 189.629 501.242 190.76 502.743 182.396Z" fill="#4DA8DA"/>
<path opacity="0.1" d="M493.888 189.629C493.888 189.629 495.069 183.214 502.736 182.387L493.888 189.629Z" fill="#4DA8DA"/>
</g>
<g opacity="0.1">
<path opacity="0.1" d="M588.824 273.893C588.824 273.893 584.322 272.154 582.138 276.67C581.567 277.892 581.277 279.259 581.294 280.643C581.31 282.027 581.634 283.383 582.235 284.587C583.661 287.508 586.596 291.34 592.152 290.969C596.869 290.682 598.437 286.596 598.838 282.79C598.991 281.366 598.823 279.921 598.349 278.591C597.875 277.261 597.11 276.091 596.127 275.191C595.145 274.29 593.976 273.689 592.732 273.444C591.488 273.199 590.209 273.319 589.017 273.792L588.824 273.893Z" fill="#4DA8DA"/>
<path opacity="0.1" d="M583.216 285.001C582.615 283.797 582.291 282.44 582.274 281.056C582.257 279.672 582.548 278.306 583.119 277.084C585.288 272.576 589.805 274.307 589.805 274.307L590.035 274.214C591.753 273.507 593.642 273.555 595.331 274.349C594.399 273.718 593.355 273.33 592.275 273.213C591.194 273.097 590.104 273.254 589.084 273.674L588.854 273.766C588.854 273.766 584.352 272.028 582.168 276.543C581.597 277.766 581.306 279.132 581.323 280.516C581.34 281.9 581.664 283.257 582.265 284.461C583.381 286.879 585.174 288.806 587.361 289.939C585.607 288.755 584.173 287.047 583.216 285.001Z" fill="#4DA8DA"/>
<path opacity="0.2" d="M586.499 276.062C586.499 276.062 588.17 277.556 592.226 276.062H586.499Z" fill="#4DA8DA"/>
<path opacity="0.1" d="M586.135 265.217C586.135 265.217 588.995 274.029 588.757 276.333L591.023 276.063C591.023 276.063 587.205 268.34 588.163 265.217H586.135Z" fill="#4DA8DA"/>
<path opacity="0.2" d="M586.135 265.217C586.135 265.217 588.995 274.029 588.757 276.333L591.023 276.063C591.023 276.063 587.205 268.34 588.163 265.217H586.135Z" fill="#4DA8DA"/>
<path opacity="0.1" d="M597.827 265.959C597.827 265.959 593.318 263.342 591.305 265.503C589.292 267.664 588.98 273.192 588.98 273.192C588.98 273.192 596.327 274.323 597.827 265.959Z" fill="#4DA8DA"/>
<path opacity="0.1" d="M597.827 265.959C597.827 265.959 593.318 263.342 591.305 265.503C589.292 267.664 588.98 273.192 588.98 273.192C588.98 273.192 596.327 274.323 597.827 265.959Z" fill="#4DA8DA"/>
<path opacity="0.1" d="M588.973 273.192C588.973 273.192 590.154 266.777 597.82 265.95L588.973 273.192Z" fill="#4DA8DA"/>
</g>
<path opacity="0.1" d="M739.146 531.799C761.3 531.799 779.26 524.543 779.26 515.593C779.26 506.643 761.3 499.387 739.146 499.387C716.992 499.387 699.033 506.643 699.033 515.593C699.033 524.543 716.992 531.799 739.146 531.799Z" fill="black"/>
<path d="M739.176 515.728C739.176 515.728 762.063 427.447 734.882 362.461C723.48 335.19 719.691 304.575 724.958 274.982C727.479 260.944 731.127 247.199 735.855 233.918" stroke="#535461" stroke-width="2" stroke-miterlimit="10"/>
<path d="M718.948 192.845C718.948 203.666 736.19 235.049 736.19 235.049C736.19 235.049 753.431 203.675 753.431 192.845C753.431 187.649 751.615 182.666 748.381 178.992C745.148 175.318 740.762 173.254 736.19 173.254C731.617 173.254 727.232 175.318 723.998 178.992C720.765 182.666 718.948 187.649 718.948 192.845Z" fill="#4DA8DA"/>
<path d="M690.445 252.774C695.645 261.857 725.099 277.548 725.099 277.548C725.099 277.548 724.564 240.561 719.387 231.478C718.156 229.317 716.563 227.452 714.698 225.99C712.833 224.528 710.733 223.498 708.518 222.959C706.302 222.419 704.015 222.38 701.787 222.845C699.558 223.31 697.432 224.269 695.53 225.667C693.628 227.065 691.987 228.876 690.7 230.995C689.414 233.114 688.507 235.5 688.032 238.017C687.557 240.534 687.523 243.133 687.932 245.665C688.341 248.197 689.185 250.613 690.416 252.774H690.445Z" fill="#4DA8DA"/>
<path d="M691.671 355.194C700.177 360.064 732.594 356.696 732.594 356.696C732.594 356.696 715.702 325.077 707.196 320.207C705.175 319.049 702.972 318.354 700.714 318.163C698.456 317.972 696.187 318.288 694.037 319.094C691.886 319.899 689.896 321.178 688.181 322.857C686.465 324.536 685.058 326.583 684.038 328.88C683.019 331.177 682.408 333.68 682.239 336.246C682.071 338.812 682.35 341.39 683.058 343.833C683.767 346.277 684.893 348.538 686.37 350.487C687.848 352.436 689.649 354.036 691.671 355.194Z" fill="#4DA8DA"/>
<path d="M708.014 432.443C715.672 438.875 748.127 441.787 748.127 441.787C748.127 441.787 736.182 407.375 728.524 400.943C726.703 399.412 724.635 398.305 722.438 397.682C720.241 397.06 717.958 396.936 715.718 397.316C713.479 397.697 711.327 398.575 709.387 399.9C707.446 401.226 705.754 402.972 704.407 405.041C703.06 407.109 702.085 409.459 701.538 411.955C700.99 414.452 700.881 417.046 701.216 419.591C701.551 422.135 702.323 424.58 703.49 426.785C704.656 428.991 706.193 430.913 708.014 432.443Z" fill="#4DA8DA"/>
<path d="M761.305 279.641C754.479 287.179 722.677 294.986 722.677 294.986C722.677 294.986 730.47 259.071 737.297 251.533C738.918 249.727 740.838 248.301 742.946 247.34C745.054 246.379 747.308 245.9 749.579 245.932C751.85 245.963 754.093 246.504 756.18 247.524C758.266 248.543 760.155 250.021 761.737 251.872C763.319 253.724 764.564 255.912 765.4 258.311C766.236 260.711 766.646 263.275 766.607 265.855C766.569 268.435 766.082 270.982 765.174 273.347C764.267 275.713 762.957 277.852 761.32 279.641H761.305Z" fill="#4DA8DA"/>
<path d="M779.327 370.261C770.821 375.131 738.403 371.763 738.403 371.763C738.403 371.763 755.296 340.144 763.801 335.274C765.823 334.116 768.026 333.421 770.284 333.23C772.542 333.039 774.811 333.355 776.961 334.161C779.112 334.966 781.101 336.245 782.817 337.924C784.532 339.603 785.94 341.649 786.96 343.947C787.979 346.244 788.59 348.747 788.758 351.313C788.926 353.878 788.648 356.456 787.939 358.9C787.231 361.343 786.105 363.604 784.627 365.554C783.15 367.503 781.349 369.102 779.327 370.261Z" fill="#4DA8DA"/>
<path d="M786.265 461.074C778.606 467.506 746.151 470.418 746.151 470.418C746.151 470.418 758.096 436.005 765.755 429.574C767.573 428.009 769.646 426.871 771.855 426.223C774.063 425.576 776.362 425.432 778.619 425.802C780.877 426.171 783.047 427.045 785.005 428.374C786.963 429.703 788.669 431.46 790.025 433.544C791.381 435.627 792.36 437.996 792.905 440.512C793.449 443.028 793.55 445.642 793.199 448.203C792.849 450.763 792.055 453.219 790.863 455.429C789.672 457.638 788.106 459.557 786.257 461.074H786.265Z" fill="#4DA8DA"/>
<path opacity="0.1" d="M639.308 485.206C661.462 485.206 679.422 477.951 679.422 469C679.422 460.05 661.462 452.794 639.308 452.794C617.154 452.794 599.194 460.05 599.194 469C599.194 477.951 617.154 485.206 639.308 485.206Z" fill="black"/>
<path d="M637.681 471.305C637.681 471.305 648.4 429.945 635.668 399.499C630.255 386.768 628.624 372.386 631.018 358.511C632.201 351.935 633.911 345.496 636.128 339.275" stroke="#535461" stroke-width="2" stroke-miterlimit="10"/>
<path d="M628.202 320.03C628.202 325.094 636.277 339.798 636.277 339.798C636.277 339.798 644.352 325.094 644.352 320.03C644.352 317.595 643.501 315.261 641.986 313.539C640.471 311.818 638.416 310.851 636.273 310.851C634.131 310.851 632.076 311.818 630.561 313.539C629.046 315.261 628.195 317.595 628.195 320.03H628.202Z" fill="#4DA8DA"/>
<path d="M614.853 348.104C617.275 352.324 631.092 359.71 631.092 359.71C631.092 359.71 630.839 342.381 628.418 338.127C627.841 337.115 627.095 336.242 626.221 335.557C625.348 334.873 624.364 334.391 623.327 334.139C622.289 333.886 621.218 333.869 620.175 334.087C619.131 334.305 618.136 334.754 617.245 335.409C616.355 336.064 615.586 336.912 614.984 337.905C614.382 338.897 613.958 340.015 613.735 341.193C613.513 342.372 613.498 343.589 613.69 344.775C613.881 345.961 614.277 347.092 614.853 348.104Z" fill="#4DA8DA"/>
<path d="M615.433 396.089C619.414 398.368 634.606 396.798 634.606 396.798C634.606 396.798 626.694 381.985 622.72 379.697C621.773 379.155 620.741 378.83 619.683 378.74C618.625 378.651 617.562 378.799 616.555 379.176C614.52 379.939 612.835 381.588 611.871 383.762C610.906 385.935 610.741 388.455 611.412 390.767C612.083 393.079 613.535 394.994 615.448 396.089H615.433Z" fill="#4DA8DA"/>
<path d="M623.069 432.283C626.657 435.296 641.863 436.664 641.863 436.664C641.863 436.664 636.262 420.542 632.682 417.529C631.829 416.812 630.86 416.293 629.83 416.002C628.801 415.711 627.731 415.653 626.682 415.832C625.632 416.011 624.624 416.423 623.715 417.044C622.806 417.665 622.014 418.484 621.383 419.453C620.752 420.423 620.296 421.524 620.04 422.693C619.783 423.863 619.732 425.079 619.89 426.271C620.047 427.463 620.409 428.608 620.956 429.641C621.503 430.674 622.224 431.575 623.077 432.292L623.069 432.283Z" fill="#4DA8DA"/>
<path d="M648.051 360.697C644.849 364.226 629.941 367.889 629.941 367.889C629.941 367.889 633.595 351.058 636.79 347.53C638.326 345.834 640.393 344.901 642.535 344.937C644.677 344.973 646.718 345.974 648.211 347.72C649.703 349.466 650.524 351.814 650.493 354.248C650.461 356.682 649.58 359.002 648.044 360.697H648.051Z" fill="#4DA8DA"/>
<path d="M656.512 403.154C652.53 405.433 637.339 403.863 637.339 403.863C637.339 403.863 645.251 389.05 649.225 386.762C651.138 385.667 653.356 385.479 655.39 386.241C657.425 387.003 659.11 388.653 660.074 390.827C661.038 393 661.203 395.52 660.533 397.832C659.862 400.144 658.41 402.058 656.497 403.154H656.512Z" fill="#4DA8DA"/>
<path d="M659.729 445.67C656.141 448.683 640.935 450.051 640.935 450.051C640.935 450.051 646.536 433.929 650.116 430.916C650.969 430.199 651.937 429.679 652.967 429.387C653.996 429.096 655.066 429.037 656.115 429.215C657.164 429.393 658.172 429.804 659.081 430.424C659.991 431.045 660.784 431.863 661.415 432.832C662.046 433.801 662.503 434.901 662.76 436.071C663.017 437.24 663.068 438.456 662.912 439.648C662.755 440.84 662.394 441.985 661.847 443.019C661.301 444.052 660.581 444.953 659.729 445.67Z" fill="#4DA8DA"/>
<path d="M845.604 553.585L615.589 414.946H567.356L579.836 296.911C580.109 294.327 579.926 291.707 579.297 289.205C578.668 286.703 577.606 284.368 576.174 282.338C574.741 280.308 572.966 278.623 570.953 277.381C568.941 276.14 566.73 275.367 564.451 275.108L563.159 275.168H563.032L387.565 278.198C383.073 277.837 378.615 279.307 374.991 282.343C371.367 285.38 368.814 289.785 367.79 294.767L359.619 362.597L358.438 360.545L357.866 359.558C362.182 356.367 353.669 337.401 346.456 323.263L345.802 321.98C350.378 319.811 355.459 317.759 355.459 317.759L344.205 309.774C344.205 309.774 333.85 292.741 322.826 278.924C330.254 226.068 314.565 164.974 314.38 164.13L313.964 164.256C316.142 160.249 317.289 155.63 317.277 150.92C317.278 147.333 316.609 143.786 315.313 140.515C314.017 137.244 312.124 134.323 309.759 131.945C309.321 127.421 308.69 122.762 307.783 117.858C307.62 117.014 307.449 116.077 307.263 115.182C306.416 110.962 305.562 106.741 304.44 102.605C303.663 99.6567 302.697 96.7765 301.551 93.9874C295.69 79.9168 283.633 69.8554 270.426 66.3103C263.629 64.4871 256.661 67.3148 250.317 65.9642C247.122 65.2974 244.263 61.8114 241.15 60.4018C237.205 58.6124 232.934 57.7767 228.759 57.0255C223.559 56.038 218.159 55.0588 212.981 56.3418C204.439 58.452 197.924 66.3188 193.132 74.6244C188.341 82.9301 184.619 92.1305 178.699 99.4401C174.74 104.336 169.867 108.269 166.338 113.57C161.138 121.369 159.333 131.295 157.662 140.935C155.596 152.794 153.531 164.822 153.576 176.867C153.576 179.661 153.613 182.463 153.828 185.265C154.371 192.457 155.812 199.547 156.154 206.747C156.154 207.524 156.206 208.3 156.22 209.077C156.146 222.253 152.722 235.243 149.319 247.904C148.235 251.93 147.135 255.99 145.85 259.957C139.016 260.616 132.479 262.169 127.495 265.224C109.28 276.299 95.2625 300.996 95.2625 300.996L68.6167 328.851C68.6167 328.851 79.1353 334.43 84.0456 343.993C84.2214 344.33 84.4227 344.65 84.6473 344.947L84.261 345.96L68.6167 387.016C68.6167 387.016 78.4371 394.984 93.1306 393.388C95.5187 393.049 97.9423 393.25 100.262 393.979C100.262 394.486 100.217 395 100.202 395.541C99.3036 419.031 98.8282 470.503 109.525 505.27L85.353 537.345L37.068 553.593L34.9657 595.797H847.008L845.604 553.585ZM149.193 396.208C151.264 396.687 153.284 397.417 155.218 398.385V427.725C153.94 417.36 152.165 406.742 149.691 397.912C149.535 397.339 149.394 396.773 149.193 396.208ZM288.618 452.667C288.618 452.566 288.618 452.465 288.618 452.364C288.647 451.339 288.769 450.321 288.982 449.325C289.284 447.781 289.954 446.361 290.921 445.223C292.711 443.189 294.561 441.002 296.41 438.631C297.549 441.971 299.193 445.059 301.269 447.755C303.646 450.768 308.957 453.478 316.415 455.926C307.204 454.302 297.926 453.214 288.618 452.667ZM349.242 448.616L324.965 456.778C313.488 453.858 305.324 450.515 302.301 446.649C300.186 443.878 298.544 440.684 297.458 437.229C306.119 425.818 314.543 410.464 316.475 389.497C316.527 388.948 316.564 388.383 316.608 387.809C319.242 386.108 321.729 384.13 324.037 381.9L324.475 383.065C331.002 399.929 340.234 415.265 351.7 428.291L349.242 448.616ZM313.258 165.489C315.167 173.313 328.115 228.71 321.622 277.421C317.581 272.475 313.503 268.052 309.848 265.14C308.983 264.459 308.077 263.847 307.137 263.308C306.327 254.378 305.956 245.119 305.896 235.944C305.971 224.582 306.565 213.314 307.382 202.594C308.266 191.233 309.306 180.395 309.952 169.734C311.19 168.463 312.298 167.039 313.258 165.489Z" fill="url(#paint0_linear)"/>
<path d="M301.41 179.129H295.073V129.329H301.41C306.248 129.329 310.889 131.513 314.31 135.401C317.732 139.288 319.654 144.561 319.654 150.059V158.348C319.66 161.075 319.192 163.776 318.278 166.297C317.364 168.818 316.021 171.109 314.326 173.039C312.631 174.97 310.618 176.501 308.402 177.546C306.185 178.591 303.809 179.129 301.41 179.129Z" fill="#DFE6F5"/>
<path d="M294.174 179.129H295.972C298.446 179.129 300.451 176.85 300.451 174.039V134.461C300.451 131.65 298.446 129.371 295.972 129.371H294.174C291.7 129.371 289.695 131.65 289.695 134.461V174.039C289.695 176.85 291.7 179.129 294.174 179.129Z" fill="#535461"/>
<g opacity="0.1">
<path opacity="0.1" d="M301.41 179.129H295.073V129.329H301.41C306.248 129.329 310.889 131.513 314.31 135.401C317.732 139.288 319.654 144.561 319.654 150.059V158.348C319.66 161.075 319.192 163.776 318.278 166.297C317.364 168.818 316.021 171.109 314.326 173.039C312.631 174.97 310.618 176.501 308.402 177.546C306.185 178.591 303.809 179.129 301.41 179.129Z" fill="black"/>
<path opacity="0.1" d="M294.174 179.129H295.972C298.446 179.129 300.451 176.85 300.451 174.039V134.461C300.451 131.65 298.446 129.371 295.972 129.371H294.174C291.7 129.371 289.695 131.65 289.695 134.461V174.039C289.695 176.85 291.7 179.129 294.174 179.129Z" fill="black"/>
</g>
<path d="M304.426 155.689H193.675V286.225H304.426V155.689Z" fill="#865A61"/>
<path opacity="0.1" d="M304.426 137.71H193.675V268.246H304.426V137.71Z" fill="black"/>
<path d="M300.644 263.95L293.959 319.152L290.809 345.099L289.65 354.628L279.941 376.135L262.113 415.604L227.719 420.297L167.222 323.356C167.222 323.356 135.547 254.572 183.706 260.818C210.708 264.33 217.134 236.864 217.617 212.056C217.738 199.566 216.742 187.094 214.645 174.833L262.797 201.412C261.677 207.338 260.835 212.782 260.271 217.745C257.923 238.054 259.87 250.715 263.94 258.387C274.779 278.822 300.644 263.95 300.644 263.95Z" fill="#FDC2CC"/>
<path opacity="0.1" d="M262.811 201.421C261.692 207.346 260.85 212.791 260.286 217.754C255.289 219.37 250.119 220.188 244.924 220.185C235.358 220.203 225.951 217.408 217.617 212.073C217.738 199.583 216.742 187.111 214.645 174.85L262.811 201.421Z" fill="black"/>
<path d="M244.924 218.615C275.697 218.615 300.644 190.268 300.644 155.301C300.644 120.334 275.697 91.987 244.924 91.987C214.15 91.987 189.203 120.334 189.203 155.301C189.203 190.268 214.15 218.615 244.924 218.615Z" fill="#FDC2CC"/>
<path d="M319.223 515.644L90.1443 535.986L127.287 486.743C167.14 459.074 166.799 421.04 161.502 397.448C159.858 389.888 157.375 382.595 154.111 375.747L233.291 376.169H233.959L240.467 392.975L240.764 393.734L245.607 406.235L262.113 372.624L267.855 362.107L271.064 356.198C271.064 356.198 318.532 343.689 319.216 375.739C319.298 379.419 319.171 383.101 318.837 386.762C316.475 412.557 304.054 429.709 293.766 441.399C282.073 454.676 319.223 515.644 319.223 515.644Z" fill="#EC7580"/>
<path d="M291.864 446.97C290.185 454.567 294.419 467.624 300.035 480.446C273.107 483.738 243.579 482.024 243.579 482.024L213.278 491.41L127.985 519.552C124.271 514.091 121.299 507.228 118.84 499.497L127.294 488.287C153.895 469.819 162.587 446.734 163.857 426.408C164.362 417.183 163.57 407.926 161.509 398.984C159.867 391.43 157.386 384.144 154.126 377.3L233.306 377.722H233.974L240.481 394.528L240.779 395.287L245.622 407.788L262.128 374.177L267.855 363.66L271.064 357.752C271.064 357.752 318.532 345.226 319.223 377.3C319.305 380.98 319.179 384.662 318.844 388.324C316.482 414.119 304.062 431.27 293.773 442.961C292.825 444.073 292.165 445.46 291.864 446.97Z" fill="#EC7580"/>
<path d="M470.563 487.502C469.189 506.258 429.29 481.248 429.29 481.248C429.29 481.248 416.907 476.555 374.944 446.075C353.639 430.604 336.839 408.317 326.659 382.019C325.054 377.954 323.711 373.762 322.64 369.476L351.552 345.225L359.983 359.87L388.011 408.531L429.283 439.762C429.283 439.762 471.937 468.747 470.563 487.502Z" fill="#FDC2CC"/>
<path d="M837.9 549.255H44.7416L124.144 522.557L322.648 455.807L449.229 413.241H612.268L837.9 549.255Z" fill="#CBCDDA"/>
<path d="M44.7416 549.255L42.6765 590.682H839.275L837.9 549.255H44.7416Z" fill="#CBCDDA"/>
<path opacity="0.1" d="M44.7416 549.255L42.6765 590.682H839.275L837.9 549.255H44.7416Z" fill="black"/>
<path d="M252.686 490.668L420.339 471.094L422.404 508.613L345.772 517.247C340.486 517.735 335.165 517.265 330.009 515.855L252.545 493.115C252.298 493.042 252.081 492.873 251.932 492.637C251.783 492.402 251.71 492.115 251.727 491.825C251.744 491.536 251.848 491.262 252.024 491.051C252.199 490.839 252.433 490.704 252.686 490.668Z" fill="#535461"/>
<path opacity="0.2" d="M252.686 490.668L420.339 471.094L422.404 508.613L345.772 517.247C340.486 517.735 335.165 517.265 330.009 515.855L252.545 493.115C252.298 493.042 252.081 492.873 251.932 492.637C251.783 492.402 251.71 492.115 251.727 491.825C251.744 491.536 251.848 491.262 252.024 491.051C252.199 490.839 252.433 490.704 252.686 490.668Z" fill="black"/>
<path d="M252.686 489.883L421.721 470.309L423.786 507.828L347.147 514.884C341.864 515.379 336.546 514.917 331.391 513.517L252.545 492.339C252.294 492.27 252.072 492.102 251.918 491.865C251.765 491.628 251.69 491.337 251.707 491.043C251.724 490.75 251.831 490.472 252.01 490.26C252.19 490.048 252.429 489.914 252.686 489.883Z" fill="#535461"/>
<path opacity="0.3" d="M292.763 491.25L382.142 480.902L383.234 500.737L342.712 504.477C339.917 504.735 337.104 504.487 334.377 503.742L292.689 492.541C292.558 492.503 292.443 492.414 292.363 492.29C292.284 492.166 292.245 492.014 292.254 491.861C292.263 491.707 292.319 491.563 292.412 491.451C292.504 491.34 292.629 491.268 292.763 491.25Z" fill="white"/>
<path opacity="0.1" d="M359.983 359.887C359.441 360.731 358.497 361.111 357.056 360.875C343.299 358.528 327.476 381.2 327.476 381.2C327.476 381.2 327.194 381.504 326.681 382.044C325.076 377.979 323.733 373.787 322.662 369.501L351.552 345.225L359.983 359.887Z" fill="black"/>
<path opacity="0.1" d="M318.844 388.273C312.374 392.367 303.467 395.304 296.522 387.429C284.525 373.797 263.495 375.612 262.187 375.697C264.334 375.359 266.236 370.345 267.855 363.626L271.064 357.718C271.064 357.718 318.532 345.226 319.223 377.3C319.303 380.963 319.177 384.628 318.844 388.273Z" fill="black"/>
<path opacity="0.1" d="M293.944 319.152L289.636 354.603L279.927 376.11C273.91 374.359 267.688 373.696 261.489 374.143C268.331 373.071 272.751 324.495 272.751 324.495L273.144 324.394L293.944 319.152Z" fill="black"/>
<path d="M357.056 359.313C343.299 356.967 327.476 379.638 327.476 379.638C327.476 379.638 308.905 399.964 296.522 385.893C284.525 372.261 263.495 374.076 262.187 374.16C269.029 373.08 273.449 324.504 273.449 324.504L273.843 324.402L339.859 307.723C339.859 307.723 343.796 314.577 348.239 323.305C356.254 339.03 365.911 360.824 357.056 359.313Z" fill="#EC7580"/>
<path opacity="0.1" d="M340.543 328.049C341.234 329.61 329.534 337.426 324.037 335.08C318.54 332.733 304.775 345.209 303.4 346.804C302.026 348.399 271.072 344.457 271.072 344.457C272.356 337.843 273.282 331.146 273.843 324.402L339.859 307.723C339.859 307.723 343.796 314.577 348.239 323.305C344.131 325.221 340.208 327.281 340.543 328.049Z" fill="black"/>
<path opacity="0.1" d="M300.644 263.95L293.959 319.152L290.809 345.099C281.583 344.314 270.396 342.904 270.396 342.904C270.396 342.904 282.088 287.407 262.826 258.497C262.826 258.497 263.235 258.497 263.97 258.413C274.779 278.822 300.644 263.95 300.644 263.95Z" fill="black"/>
<path d="M263.502 258.48C263.502 258.48 298.587 255.357 312.344 266.296C326.102 277.236 346.055 310.07 346.055 310.07L357.064 317.886C357.064 317.886 339.867 324.917 340.558 326.487C341.248 328.057 329.549 335.865 324.052 333.518C318.554 331.172 304.79 343.647 303.415 345.242C302.041 346.838 271.087 342.896 271.087 342.896C271.087 342.896 282.764 287.398 263.502 258.48Z" fill="#EC7580"/>
<path d="M516.976 473.82C509.013 473.6 321.793 468.08 303.92 445.425C284.889 421.302 303.363 351.792 318.918 301.604C335.848 246.967 315.665 168.511 315.464 167.616L316.794 167.219C317.002 168.122 337.289 247.035 320.218 302.119C296.024 380.204 291.025 426.738 304.946 444.379C322.432 466.536 515.067 472.233 517.013 472.233L516.976 473.82Z" fill="#DFE6F5"/>
<path d="M387.543 279.059L560.73 276.071C562.962 276.329 565.127 277.091 567.098 278.311C569.068 279.531 570.805 281.185 572.207 283.176C573.609 285.167 574.647 287.456 575.262 289.908C575.877 292.361 576.055 294.928 575.787 297.459L556.139 483.324C555.669 487.79 553.834 491.926 550.955 495.011C548.075 498.096 544.334 499.935 540.383 500.206L363.37 512.656C360.864 512.826 358.356 512.36 356.028 511.291C353.7 510.221 351.611 508.576 349.914 506.474C348.216 504.372 346.952 501.866 346.214 499.139C345.476 496.412 345.282 493.533 345.646 490.71L369.15 295.375C369.78 290.489 372.043 286.067 375.468 283.028C378.894 279.99 383.218 278.568 387.543 279.059Z" fill="#535461"/>
<path opacity="0.2" d="M387.543 279.059L560.73 276.071C562.962 276.329 565.127 277.091 567.098 278.311C569.068 279.531 570.805 281.185 572.207 283.176C573.609 285.167 574.647 287.456 575.262 289.908C575.877 292.361 576.055 294.928 575.787 297.459L556.139 483.324C555.669 487.79 553.834 491.926 550.955 495.011C548.075 498.096 544.334 499.935 540.383 500.206L363.37 512.656C360.864 512.826 358.356 512.36 356.028 511.291C353.7 510.221 351.611 508.576 349.914 506.474C348.216 504.372 346.952 501.866 346.214 499.139C345.476 496.412 345.282 493.533 345.646 490.71L369.15 295.375C369.78 290.489 372.043 286.067 375.468 283.028C378.894 279.99 383.218 278.568 387.543 279.059Z" fill="black"/>
<path d="M388.917 279.059L562.104 276.071C564.339 276.325 566.507 277.084 568.481 278.302C570.455 279.52 572.196 281.173 573.6 283.165C575.005 285.157 576.046 287.447 576.663 289.901C577.28 292.356 577.459 294.925 577.191 297.459L557.543 483.324C557.073 487.79 555.238 491.926 552.359 495.011C549.479 498.096 545.738 499.935 541.787 500.206L364.752 512.656C362.246 512.826 359.737 512.36 357.41 511.291C355.082 510.221 352.993 508.576 351.295 506.474C349.598 504.372 348.334 501.866 347.595 499.139C346.857 496.412 346.663 493.533 347.028 490.71L370.531 295.375C371.162 290.49 373.424 286.07 376.847 283.031C380.271 279.993 384.594 278.57 388.917 279.059Z" fill="#535461"/>
<path opacity="0.3" d="M473.653 394.089C478.211 394.089 481.906 389.89 481.906 384.711C481.906 379.532 478.211 375.334 473.653 375.334C469.095 375.334 465.4 379.532 465.4 384.711C465.4 389.89 469.095 394.089 473.653 394.089Z" fill="white"/>
<path opacity="0.1" d="M300.035 480.454C273.107 483.746 243.579 482.033 243.579 482.033L213.278 491.41L127.985 519.552C124.271 514.091 121.299 507.228 118.84 499.497L127.294 488.287C153.895 469.819 162.587 446.734 163.857 426.408C166.13 446.624 166.509 464.831 166.509 464.831L200.903 460.923L250.874 447.417C254.315 446.487 257.84 446.019 261.378 446.025C267.885 446.025 279.466 446.185 291.834 446.945C290.185 454.55 294.419 467.616 300.035 480.454Z" fill="black"/>
<path opacity="0.1" d="M337.794 470.309C321.972 491.41 240.801 486.726 240.801 486.726L210.53 496.103L125.229 524.236C124.858 523.688 124.486 523.131 124.144 522.548L322.655 455.799C335.328 458.703 343.106 463.227 337.794 470.309Z" fill="black"/>
<path d="M337.794 468.747C321.972 489.849 240.801 485.164 240.801 485.164L210.53 494.533L125.229 522.675C105.172 493.132 105.618 422.728 106.71 394.249C107.007 386.602 107.341 381.976 107.341 381.976C107.341 381.976 136.23 361.651 149.305 381.976C151.637 385.597 153.591 390.662 155.247 396.537C162.832 423.623 163.76 467.954 163.76 467.954L198.154 464.046L248.125 450.54C251.569 449.61 255.097 449.142 258.637 449.148C279.347 449.215 351.373 450.633 337.794 468.747Z" fill="#FDC2CC"/>
<path opacity="0.1" d="M155.24 396.545C150.85 395.465 145.523 395.701 138.303 399.179C123.855 406.21 112.853 404.648 112.853 404.648C112.853 404.648 113.737 396.672 106.717 394.249C107.014 386.602 107.349 381.976 107.349 381.976C107.349 381.976 136.238 361.651 149.312 381.976C151.622 385.597 153.591 390.662 155.24 396.545Z" fill="black"/>
<path opacity="0.1" d="M240.764 395.271C240.303 395.38 234.115 396.705 222.193 393.701C209.809 390.577 204.996 396.824 198.117 399.955C191.238 403.087 173.388 404.648 166.479 401.525C164.852 400.782 163.218 399.837 161.487 398.993C159.852 391.437 157.379 384.147 154.126 377.3L233.306 377.722L240.481 394.528L240.764 395.271Z" fill="black"/>
<path d="M240.764 393.709C240.764 393.709 234.576 395.271 222.193 392.148C209.809 389.024 204.996 395.271 198.117 398.402C191.238 401.534 173.35 403.095 166.472 399.964C159.593 396.832 152.714 390.586 138.244 397.617C123.773 404.648 112.794 403.087 112.794 403.087C112.794 403.087 114.168 390.578 99.727 392.114C85.2861 393.65 75.6514 385.859 75.6514 385.859L90.9986 345.58L95.6042 333.484L210.701 324.546H211.25L240.764 393.709Z" fill="#EC7580"/>
<path opacity="0.1" d="M222.193 356.198C214.623 342.128 174.725 354.637 174.725 354.637C174.725 354.637 155.463 360.891 151.333 349.167C147.202 337.443 117.667 345.226 117.667 345.226C117.667 345.226 96.2357 354.358 91.0506 345.597L95.6562 333.501L210.701 324.546L222.193 356.198Z" fill="black"/>
<path d="M189.203 263.95C189.203 263.95 151.37 255.349 133.489 266.296C115.609 277.244 101.852 301.469 101.852 301.469L75.7034 328.825C75.7034 328.825 86.0215 334.295 90.8352 343.672C95.6488 353.05 117.667 343.672 117.667 343.672C117.667 343.672 147.247 335.856 151.377 347.58C155.507 359.305 174.769 353.05 174.769 353.05C174.769 353.05 214.668 340.541 222.237 354.612L189.203 263.95Z" fill="#EC7580"/>
<path opacity="0.1" d="M232.815 63.6684C227.69 62.6892 222.415 61.7354 217.334 62.9931C208.955 65.0611 202.567 72.7843 197.864 80.9212C193.162 89.0581 189.507 98.0896 183.706 105.256C179.821 110.059 175.044 113.916 171.582 119.115C166.487 126.771 164.711 136.537 163.069 145.957C160.663 159.783 158.248 173.811 159.311 187.882C159.846 194.938 161.257 201.885 161.591 208.984C162.267 223.24 158.56 237.235 154.906 250.892C152.373 260.329 149.758 269.943 144.751 278.004C141.43 283.347 137.174 287.82 133.118 292.454C132.139 293.399 131.402 294.627 130.986 296.008C130.109 300.042 134.396 302.76 137.672 304.583C147.693 310.264 154.267 321.347 162.059 330.48C169.852 339.612 181.002 347.454 191.721 343.791C194.9 342.702 197.916 340.634 201.229 340.701C203.458 340.744 205.597 341.773 207.714 342.617C212.981 344.719 218.527 345.775 224.109 345.74C225.342 345.86 226.579 345.566 227.667 344.896C229.324 343.622 229.643 341.056 229.807 338.794C230.854 324.596 231.894 310.348 231.188 296.126C229.591 263.916 203.399 226.659 213.36 196.432C217.691 183.248 225.61 171.904 229.992 158.745C234.613 144.877 250.904 133.617 254.135 119.242C254.499 117.621 254.997 115.866 256.245 115.022C257.961 113.823 260.197 114.87 261.853 116.17C271.228 123.513 274.281 137.322 277.691 149.662C280.438 159.602 283.843 169.291 287.875 178.648C290.103 183.712 294.887 189.579 299.077 186.506C296.967 207.844 284.785 226.481 282.029 247.718C279.34 268.415 285.854 289.567 283.329 310.281C281.666 323.617 276.351 336.02 268.138 345.732C277.407 347.824 286.939 347.922 296.239 346.019C305.666 344.086 315.754 339.013 319.156 328.834C322.87 317.633 317.128 305.613 314.209 294.1C307.204 266.423 307.746 233.69 309.967 205C312.255 175.499 315.687 149.671 309.871 120.804C308.444 113.722 306.996 106.581 304.262 100.014C298.512 86.2135 286.686 76.3379 273.724 72.8603C267.038 71.0709 260.219 73.8479 253.994 72.5311C250.859 71.8643 248.051 68.4543 245.005 67.07C241.098 65.2552 236.908 64.4449 232.815 63.6684Z" fill="black"/>
<path d="M319.119 327.213C315.717 337.393 305.629 342.465 296.195 344.398C286.894 346.297 277.362 346.199 268.093 344.111C276.304 334.398 281.618 321.995 283.284 308.66C285.817 287.938 279.302 266.786 281.984 246.098C284.74 224.852 296.923 206.215 299.032 184.877C294.843 187.95 290.022 182.109 287.823 177.019C283.792 167.661 280.388 157.972 277.639 148.033C274.229 135.693 271.176 121.867 261.801 114.541C260.145 113.241 257.909 112.194 256.193 113.401C254.937 114.245 254.447 116.026 254.083 117.621C250.859 131.971 234.561 143.247 229.948 157.116C225.558 170.275 217.639 181.594 213.308 194.803C203.384 225.021 229.576 262.279 231.136 294.488C231.835 308.711 230.795 322.967 229.755 337.156C229.584 339.427 229.264 341.993 227.608 343.267C226.522 343.937 225.288 344.23 224.057 344.111C218.491 344.149 212.96 343.099 207.707 341.005C205.59 340.161 203.465 339.131 201.222 339.089C197.909 339.03 194.893 341.098 191.714 342.178C180.994 345.842 169.837 338 162.052 328.867C154.267 319.735 147.67 308.669 137.657 303.022C134.381 301.165 130.095 298.481 130.971 294.438C131.391 293.061 132.127 291.837 133.103 290.893C137.159 286.259 141.423 281.777 144.743 276.442C149.75 268.381 152.358 258.767 154.898 249.33C158.568 235.673 162.275 221.679 161.584 207.422C161.257 200.357 159.846 193.411 159.303 186.32C158.234 172.275 160.655 158.23 163.062 144.404C164.696 134.984 166.472 125.218 171.575 117.562C175.044 112.363 179.813 108.505 183.706 103.703C189.515 96.5365 193.155 87.505 197.864 79.3597C202.574 71.2144 208.962 63.4996 217.342 61.4316C222.415 60.1739 227.697 61.1362 232.823 62.1068C236.916 62.8918 241.105 63.7021 244.976 65.4831C248.029 66.8674 250.837 70.2859 253.964 70.9358C260.189 72.261 267.031 69.484 273.694 71.2735C286.657 74.7426 298.483 84.6182 304.232 98.4188C305.357 101.15 306.306 103.971 307.07 106.86C308.169 110.911 309.009 115.055 309.841 119.191C310.019 120.036 310.19 120.947 310.353 121.817C315.442 149.299 312.159 169.312 309.937 197.901C307.716 226.49 307.174 264.794 314.172 292.437C317.091 303.984 322.863 316.012 319.119 327.213Z" fill="#865A61"/>
<path opacity="0.05" d="M239.768 376.904C239.768 376.904 245.273 387.032 245.273 394.097C245.273 394.097 249.403 376.904 252.842 376.904" fill="black"/>
<path d="M226.694 379.242V430.831C226.705 439.258 224.207 447.442 219.607 454.052C218.822 455.179 217.981 456.256 217.089 457.276C214.021 460.778 210.375 463.556 206.359 465.452C202.344 467.348 198.038 468.324 193.69 468.324C189.341 468.324 185.036 467.348 181.02 465.452C177.004 463.556 173.358 460.778 170.29 457.276C169.398 456.256 168.557 455.179 167.772 454.052C163.172 447.442 160.674 439.258 160.685 430.831V379.242C160.669 370.475 163.37 361.983 168.314 355.253C169.192 354.059 170.137 352.931 171.144 351.877C177.259 345.363 185.326 341.737 193.708 341.737C202.09 341.737 210.157 345.363 216.272 351.877C216.539 352.147 216.799 352.442 217.059 352.721C217.802 353.565 218.449 354.409 219.102 355.253C224.033 361.989 226.72 370.481 226.694 379.242Z" fill="#DFE6F5"/>
<path opacity="0.1" d="M226.694 379.242V430.831C226.705 439.258 224.207 447.442 219.607 454.052C218.822 455.179 217.981 456.256 217.089 457.276C214.021 460.778 210.375 463.556 206.359 465.452C202.344 467.348 198.038 468.324 193.69 468.324C189.341 468.324 185.036 467.348 181.02 465.452C177.004 463.556 173.358 460.778 170.29 457.276C169.398 456.256 168.557 455.179 167.772 454.052C163.172 447.442 160.674 439.258 160.685 430.831V379.242C160.669 370.475 163.37 361.983 168.314 355.253C169.192 354.059 170.137 352.931 171.144 351.877C177.259 345.363 185.326 341.737 193.708 341.737C202.09 341.737 210.157 345.363 216.272 351.877C216.539 352.147 216.799 352.442 217.059 352.721C217.802 353.565 218.449 354.409 219.102 355.253C224.033 361.989 226.72 370.481 226.694 379.242Z" fill="black"/>
<path d="M228.076 379.242V430.831C228.087 439.258 225.589 447.442 220.989 454.052C220.203 455.179 219.363 456.256 218.471 457.276C215.403 460.778 211.756 463.556 207.741 465.452C203.725 467.348 199.42 468.324 195.071 468.324C190.723 468.324 186.417 467.348 182.402 465.452C178.386 463.556 174.74 460.778 171.672 457.276C170.78 456.256 169.939 455.179 169.153 454.052C164.537 447.448 162.024 439.264 162.022 430.831V379.242C162.006 370.475 164.707 361.983 169.651 355.253C170.529 354.059 171.474 352.931 172.481 351.877C178.596 345.363 186.663 341.737 195.045 341.737C203.427 341.737 211.495 345.363 217.609 351.877C217.877 352.147 218.137 352.442 218.397 352.721C219.139 353.565 219.786 354.409 220.439 355.253C225.386 361.982 228.089 370.474 228.076 379.242Z" fill="#DFE6F5"/>
<path opacity="0.1" d="M180.601 355.793C181.741 355.793 182.666 354.743 182.666 353.447C182.666 352.151 181.741 351.1 180.601 351.1C179.46 351.1 178.536 352.151 178.536 353.447C178.536 354.743 179.46 355.793 180.601 355.793Z" fill="black"/>
<path opacity="0.1" d="M180.601 363.609C181.741 363.609 182.666 362.559 182.666 361.263C182.666 359.967 181.741 358.916 180.601 358.916C179.46 358.916 178.536 359.967 178.536 361.263C178.536 362.559 179.46 363.609 180.601 363.609Z" fill="black"/>
<path opacity="0.1" d="M180.601 371.426C181.741 371.426 182.666 370.375 182.666 369.079C182.666 367.783 181.741 366.732 180.601 366.732C179.46 366.732 178.536 367.783 178.536 369.079C178.536 370.375 179.46 371.426 180.601 371.426Z" fill="black"/>
<path opacity="0.1" d="M180.601 379.242C181.741 379.242 182.666 378.191 182.666 376.895C182.666 375.599 181.741 374.549 180.601 374.549C179.46 374.549 178.536 375.599 178.536 376.895C178.536 378.191 179.46 379.242 180.601 379.242Z" fill="black"/>
<path opacity="0.1" d="M180.601 387.058C181.741 387.058 182.666 386.007 182.666 384.711C182.666 383.415 181.741 382.365 180.601 382.365C179.46 382.365 178.536 383.415 178.536 384.711C178.536 386.007 179.46 387.058 180.601 387.058Z" fill="black"/>
<path opacity="0.1" d="M180.601 394.874C181.741 394.874 182.666 393.823 182.666 392.527C182.666 391.231 181.741 390.181 180.601 390.181C179.46 390.181 178.536 391.231 178.536 392.527C178.536 393.823 179.46 394.874 180.601 394.874Z" fill="black"/>
<path opacity="0.1" d="M180.601 402.69C181.741 402.69 182.666 401.639 182.666 400.343C182.666 399.047 181.741 397.997 180.601 397.997C179.46 397.997 178.536 399.047 178.536 400.343C178.536 401.639 179.46 402.69 180.601 402.69Z" fill="black"/>
<path opacity="0.1" d="M180.601 410.514C181.741 410.514 182.666 409.464 182.666 408.168C182.666 406.872 181.741 405.821 180.601 405.821C179.46 405.821 178.536 406.872 178.536 408.168C178.536 409.464 179.46 410.514 180.601 410.514Z" fill="black"/>
<path opacity="0.1" d="M180.601 418.331C181.741 418.331 182.666 417.28 182.666 415.984C182.666 414.688 181.741 413.638 180.601 413.638C179.46 413.638 178.536 414.688 178.536 415.984C178.536 417.28 179.46 418.331 180.601 418.331Z" fill="black"/>
<path opacity="0.1" d="M180.601 426.147C181.741 426.147 182.666 425.096 182.666 423.8C182.666 422.504 181.741 421.454 180.601 421.454C179.46 421.454 178.536 422.504 178.536 423.8C178.536 425.096 179.46 426.147 180.601 426.147Z" fill="black"/>
<path opacity="0.1" d="M180.601 433.963C181.741 433.963 182.666 432.912 182.666 431.616C182.666 430.32 181.741 429.27 180.601 429.27C179.46 429.27 178.536 430.32 178.536 431.616C178.536 432.912 179.46 433.963 180.601 433.963Z" fill="black"/>
<path opacity="0.1" d="M180.601 441.779C181.741 441.779 182.666 440.728 182.666 439.432C182.666 438.136 181.741 437.086 180.601 437.086C179.46 437.086 178.536 438.136 178.536 439.432C178.536 440.728 179.46 441.779 180.601 441.779Z" fill="black"/>
<path opacity="0.1" d="M180.601 449.595C181.741 449.595 182.666 448.544 182.666 447.249C182.666 445.953 181.741 444.902 180.601 444.902C179.46 444.902 178.536 445.953 178.536 447.249C178.536 448.544 179.46 449.595 180.601 449.595Z" fill="black"/>
<path opacity="0.1" d="M180.601 457.411C181.741 457.411 182.666 456.361 182.666 455.065C182.666 453.769 181.741 452.718 180.601 452.718C179.46 452.718 178.536 453.769 178.536 455.065C178.536 456.361 179.46 457.411 180.601 457.411Z" fill="black"/>
<path opacity="0.1" d="M173.038 353.447C173.038 353.892 172.926 354.327 172.716 354.703C172.506 355.078 172.207 355.378 171.852 355.567C171.498 355.756 171.104 355.827 170.715 355.772C170.327 355.716 169.96 355.536 169.658 355.253C170.536 354.059 171.482 352.931 172.489 351.877C172.841 352.302 173.038 352.863 173.038 353.447Z" fill="black"/>
<path opacity="0.1" d="M170.973 363.609C172.114 363.609 173.038 362.559 173.038 361.263C173.038 359.967 172.114 358.916 170.973 358.916C169.833 358.916 168.908 359.967 168.908 361.263C168.908 362.559 169.833 363.609 170.973 363.609Z" fill="black"/>
<path opacity="0.1" d="M170.973 371.426C172.114 371.426 173.038 370.375 173.038 369.079C173.038 367.783 172.114 366.732 170.973 366.732C169.833 366.732 168.908 367.783 168.908 369.079C168.908 370.375 169.833 371.426 170.973 371.426Z" fill="black"/>
<path opacity="0.1" d="M170.973 379.242C172.114 379.242 173.038 378.191 173.038 376.895C173.038 375.599 172.114 374.549 170.973 374.549C169.833 374.549 168.908 375.599 168.908 376.895C168.908 378.191 169.833 379.242 170.973 379.242Z" fill="black"/>
<path opacity="0.1" d="M170.973 387.058C172.114 387.058 173.038 386.007 173.038 384.711C173.038 383.415 172.114 382.365 170.973 382.365C169.833 382.365 168.908 383.415 168.908 384.711C168.908 386.007 169.833 387.058 170.973 387.058Z" fill="black"/>
<path opacity="0.1" d="M170.973 394.874C172.114 394.874 173.038 393.823 173.038 392.527C173.038 391.231 172.114 390.181 170.973 390.181C169.833 390.181 168.908 391.231 168.908 392.527C168.908 393.823 169.833 394.874 170.973 394.874Z" fill="black"/>
<path opacity="0.1" d="M170.973 402.69C172.114 402.69 173.038 401.639 173.038 400.343C173.038 399.047 172.114 397.997 170.973 397.997C169.833 397.997 168.908 399.047 168.908 400.343C168.908 401.639 169.833 402.69 170.973 402.69Z" fill="black"/>
<path opacity="0.1" d="M170.973 410.514C172.114 410.514 173.038 409.464 173.038 408.168C173.038 406.872 172.114 405.821 170.973 405.821C169.833 405.821 168.908 406.872 168.908 408.168C168.908 409.464 169.833 410.514 170.973 410.514Z" fill="black"/>
<path opacity="0.1" d="M170.973 418.331C172.114 418.331 173.038 417.28 173.038 415.984C173.038 414.688 172.114 413.638 170.973 413.638C169.833 413.638 168.908 414.688 168.908 415.984C168.908 417.28 169.833 418.331 170.973 418.331Z" fill="black"/>
<path opacity="0.1" d="M170.973 426.147C172.114 426.147 173.038 425.096 173.038 423.8C173.038 422.504 172.114 421.454 170.973 421.454C169.833 421.454 168.908 422.504 168.908 423.8C168.908 425.096 169.833 426.147 170.973 426.147Z" fill="black"/>
<path opacity="0.1" d="M170.973 433.963C172.114 433.963 173.038 432.912 173.038 431.616C173.038 430.32 172.114 429.27 170.973 429.27C169.833 429.27 168.908 430.32 168.908 431.616C168.908 432.912 169.833 433.963 170.973 433.963Z" fill="black"/>
<path opacity="0.1" d="M170.973 441.779C172.114 441.779 173.038 440.728 173.038 439.432C173.038 438.136 172.114 437.086 170.973 437.086C169.833 437.086 168.908 438.136 168.908 439.432C168.908 440.728 169.833 441.779 170.973 441.779Z" fill="black"/>
<path opacity="0.1" d="M170.973 449.595C172.114 449.595 173.038 448.544 173.038 447.249C173.038 445.953 172.114 444.902 170.973 444.902C169.833 444.902 168.908 445.953 168.908 447.249C168.908 448.544 169.833 449.595 170.973 449.595Z" fill="black"/>
<path opacity="0.1" d="M173.038 455.065C173.039 455.555 172.904 456.034 172.652 456.432C172.4 456.83 172.044 457.129 171.635 457.284C170.743 456.264 169.902 455.187 169.116 454.06C169.315 453.577 169.653 453.185 170.074 452.95C170.496 452.715 170.975 452.651 171.433 452.768C171.891 452.885 172.3 453.177 172.592 453.595C172.884 454.013 173.042 454.531 173.038 455.065Z" fill="black"/>
<path opacity="0.1" d="M190.235 355.793C191.376 355.793 192.3 354.743 192.3 353.447C192.3 352.151 191.376 351.1 190.235 351.1C189.095 351.1 188.17 352.151 188.17 353.447C188.17 354.743 189.095 355.793 190.235 355.793Z" fill="black"/>
<path opacity="0.1" d="M190.235 363.609C191.376 363.609 192.3 362.559 192.3 361.263C192.3 359.967 191.376 358.916 190.235 358.916C189.095 358.916 188.17 359.967 188.17 361.263C188.17 362.559 189.095 363.609 190.235 363.609Z" fill="black"/>
<path opacity="0.1" d="M190.235 371.426C191.376 371.426 192.3 370.375 192.3 369.079C192.3 367.783 191.376 366.732 190.235 366.732C189.095 366.732 188.17 367.783 188.17 369.079C188.17 370.375 189.095 371.426 190.235 371.426Z" fill="black"/>
<path opacity="0.1" d="M190.235 379.242C191.376 379.242 192.3 378.191 192.3 376.895C192.3 375.599 191.376 374.549 190.235 374.549C189.095 374.549 188.17 375.599 188.17 376.895C188.17 378.191 189.095 379.242 190.235 379.242Z" fill="black"/>
<path opacity="0.1" d="M190.235 387.058C191.376 387.058 192.3 386.007 192.3 384.711C192.3 383.415 191.376 382.365 190.235 382.365C189.095 382.365 188.17 383.415 188.17 384.711C188.17 386.007 189.095 387.058 190.235 387.058Z" fill="black"/>
<path opacity="0.1" d="M190.235 394.874C191.376 394.874 192.3 393.823 192.3 392.527C192.3 391.231 191.376 390.181 190.235 390.181C189.095 390.181 188.17 391.231 188.17 392.527C188.17 393.823 189.095 394.874 190.235 394.874Z" fill="black"/>
<path opacity="0.1" d="M190.235 402.69C191.376 402.69 192.3 401.639 192.3 400.343C192.3 399.047 191.376 397.997 190.235 397.997C189.095 397.997 188.17 399.047 188.17 400.343C188.17 401.639 189.095 402.69 190.235 402.69Z" fill="black"/>
<path opacity="0.1" d="M190.235 410.514C191.376 410.514 192.3 409.464 192.3 408.168C192.3 406.872 191.376 405.821 190.235 405.821C189.095 405.821 188.17 406.872 188.17 408.168C188.17 409.464 189.095 410.514 190.235 410.514Z" fill="black"/>
<path opacity="0.1" d="M190.235 418.331C191.376 418.331 192.3 417.28 192.3 415.984C192.3 414.688 191.376 413.638 190.235 413.638C189.095 413.638 188.17 414.688 188.17 415.984C188.17 417.28 189.095 418.331 190.235 418.331Z" fill="black"/>
<path opacity="0.1" d="M190.235 426.147C191.376 426.147 192.3 425.096 192.3 423.8C192.3 422.504 191.376 421.454 190.235 421.454C189.095 421.454 188.17 422.504 188.17 423.8C188.17 425.096 189.095 426.147 190.235 426.147Z" fill="black"/>
<path opacity="0.1" d="M190.235 433.963C191.376 433.963 192.3 432.912 192.3 431.616C192.3 430.32 191.376 429.27 190.235 429.27C189.095 429.27 188.17 430.32 188.17 431.616C188.17 432.912 189.095 433.963 190.235 433.963Z" fill="black"/>
<path opacity="0.1" d="M190.235 441.779C191.376 441.779 192.3 440.728 192.3 439.432C192.3 438.136 191.376 437.086 190.235 437.086C189.095 437.086 188.17 438.136 188.17 439.432C188.17 440.728 189.095 441.779 190.235 441.779Z" fill="black"/>
<path opacity="0.1" d="M190.235 449.595C191.376 449.595 192.3 448.544 192.3 447.249C192.3 445.953 191.376 444.902 190.235 444.902C189.095 444.902 188.17 445.953 188.17 447.249C188.17 448.544 189.095 449.595 190.235 449.595Z" fill="black"/>
<path opacity="0.1" d="M190.235 457.411C191.376 457.411 192.3 456.361 192.3 455.065C192.3 453.769 191.376 452.718 190.235 452.718C189.095 452.718 188.17 453.769 188.17 455.065C188.17 456.361 189.095 457.411 190.235 457.411Z" fill="black"/>
<path opacity="0.1" d="M199.863 355.793C201.003 355.793 201.928 354.743 201.928 353.447C201.928 352.151 201.003 351.1 199.863 351.1C198.722 351.1 197.798 352.151 197.798 353.447C197.798 354.743 198.722 355.793 199.863 355.793Z" fill="black"/>
<path opacity="0.1" d="M199.863 363.609C201.003 363.609 201.928 362.559 201.928 361.263C201.928 359.967 201.003 358.916 199.863 358.916C198.722 358.916 197.798 359.967 197.798 361.263C197.798 362.559 198.722 363.609 199.863 363.609Z" fill="black"/>
<path opacity="0.1" d="M199.863 371.426C201.003 371.426 201.928 370.375 201.928 369.079C201.928 367.783 201.003 366.732 199.863 366.732C198.722 366.732 197.798 367.783 197.798 369.079C197.798 370.375 198.722 371.426 199.863 371.426Z" fill="black"/>
<path opacity="0.1" d="M199.863 379.242C201.003 379.242 201.928 378.191 201.928 376.895C201.928 375.599 201.003 374.549 199.863 374.549C198.722 374.549 197.798 375.599 197.798 376.895C197.798 378.191 198.722 379.242 199.863 379.242Z" fill="black"/>
<path opacity="0.1" d="M199.863 387.058C201.003 387.058 201.928 386.007 201.928 384.711C201.928 383.415 201.003 382.365 199.863 382.365C198.722 382.365 197.798 383.415 197.798 384.711C197.798 386.007 198.722 387.058 199.863 387.058Z" fill="black"/>
<path opacity="0.1" d="M199.863 394.874C201.003 394.874 201.928 393.823 201.928 392.527C201.928 391.231 201.003 390.181 199.863 390.181C198.722 390.181 197.798 391.231 197.798 392.527C197.798 393.823 198.722 394.874 199.863 394.874Z" fill="black"/>
<path opacity="0.1" d="M199.863 402.69C201.003 402.69 201.928 401.639 201.928 400.343C201.928 399.047 201.003 397.997 199.863 397.997C198.722 397.997 197.798 399.047 197.798 400.343C197.798 401.639 198.722 402.69 199.863 402.69Z" fill="black"/>
<path opacity="0.1" d="M199.863 410.514C201.003 410.514 201.928 409.464 201.928 408.168C201.928 406.872 201.003 405.821 199.863 405.821C198.722 405.821 197.798 406.872 197.798 408.168C197.798 409.464 198.722 410.514 199.863 410.514Z" fill="black"/>
<path opacity="0.1" d="M199.863 418.331C201.003 418.331 201.928 417.28 201.928 415.984C201.928 414.688 201.003 413.638 199.863 413.638C198.722 413.638 197.798 414.688 197.798 415.984C197.798 417.28 198.722 418.331 199.863 418.331Z" fill="black"/>
<path opacity="0.1" d="M199.863 426.147C201.003 426.147 201.928 425.096 201.928 423.8C201.928 422.504 201.003 421.454 199.863 421.454C198.722 421.454 197.798 422.504 197.798 423.8C197.798 425.096 198.722 426.147 199.863 426.147Z" fill="black"/>
<path opacity="0.1" d="M199.863 433.963C201.003 433.963 201.928 432.912 201.928 431.616C201.928 430.32 201.003 429.27 199.863 429.27C198.722 429.27 197.798 430.32 197.798 431.616C197.798 432.912 198.722 433.963 199.863 433.963Z" fill="black"/>
<path opacity="0.1" d="M199.863 441.779C201.003 441.779 201.928 440.728 201.928 439.432C201.928 438.136 201.003 437.086 199.863 437.086C198.722 437.086 197.798 438.136 197.798 439.432C197.798 440.728 198.722 441.779 199.863 441.779Z" fill="black"/>
<path opacity="0.1" d="M199.863 449.595C201.003 449.595 201.928 448.544 201.928 447.249C201.928 445.953 201.003 444.902 199.863 444.902C198.722 444.902 197.798 445.953 197.798 447.249C197.798 448.544 198.722 449.595 199.863 449.595Z" fill="black"/>
<path opacity="0.1" d="M199.863 457.411C201.003 457.411 201.928 456.361 201.928 455.065C201.928 453.769 201.003 452.718 199.863 452.718C198.722 452.718 197.798 453.769 197.798 455.065C197.798 456.361 198.722 457.411 199.863 457.411Z" fill="black"/>
<path opacity="0.1" d="M209.497 355.793C210.638 355.793 211.562 354.743 211.562 353.447C211.562 352.151 210.638 351.1 209.497 351.1C208.357 351.1 207.432 352.151 207.432 353.447C207.432 354.743 208.357 355.793 209.497 355.793Z" fill="black"/>
<path opacity="0.1" d="M209.497 363.609C210.638 363.609 211.562 362.559 211.562 361.263C211.562 359.967 210.638 358.916 209.497 358.916C208.357 358.916 207.432 359.967 207.432 361.263C207.432 362.559 208.357 363.609 209.497 363.609Z" fill="black"/>
<path opacity="0.1" d="M209.497 371.426C210.638 371.426 211.562 370.375 211.562 369.079C211.562 367.783 210.638 366.732 209.497 366.732C208.357 366.732 207.432 367.783 207.432 369.079C207.432 370.375 208.357 371.426 209.497 371.426Z" fill="black"/>
<path opacity="0.1" d="M209.497 379.242C210.638 379.242 211.562 378.191 211.562 376.895C211.562 375.599 210.638 374.549 209.497 374.549C208.357 374.549 207.432 375.599 207.432 376.895C207.432 378.191 208.357 379.242 209.497 379.242Z" fill="black"/>
<path opacity="0.1" d="M209.497 387.058C210.638 387.058 211.562 386.007 211.562 384.711C211.562 383.415 210.638 382.365 209.497 382.365C208.357 382.365 207.432 383.415 207.432 384.711C207.432 386.007 208.357 387.058 209.497 387.058Z" fill="black"/>
<path opacity="0.1" d="M209.497 394.874C210.638 394.874 211.562 393.823 211.562 392.527C211.562 391.231 210.638 390.181 209.497 390.181C208.357 390.181 207.432 391.231 207.432 392.527C207.432 393.823 208.357 394.874 209.497 394.874Z" fill="black"/>
<path opacity="0.1" d="M209.497 402.69C210.638 402.69 211.562 401.639 211.562 400.343C211.562 399.047 210.638 397.997 209.497 397.997C208.357 397.997 207.432 399.047 207.432 400.343C207.432 401.639 208.357 402.69 209.497 402.69Z" fill="black"/>
<path opacity="0.1" d="M209.497 410.514C210.638 410.514 211.562 409.464 211.562 408.168C211.562 406.872 210.638 405.821 209.497 405.821C208.357 405.821 207.432 406.872 207.432 408.168C207.432 409.464 208.357 410.514 209.497 410.514Z" fill="black"/>
<path opacity="0.1" d="M209.497 418.331C210.638 418.331 211.562 417.28 211.562 415.984C211.562 414.688 210.638 413.638 209.497 413.638C208.357 413.638 207.432 414.688 207.432 415.984C207.432 417.28 208.357 418.331 209.497 418.331Z" fill="black"/>
<path opacity="0.1" d="M209.497 426.147C210.638 426.147 211.562 425.096 211.562 423.8C211.562 422.504 210.638 421.454 209.497 421.454C208.357 421.454 207.432 422.504 207.432 423.8C207.432 425.096 208.357 426.147 209.497 426.147Z" fill="black"/>
<path opacity="0.1" d="M209.497 433.963C210.638 433.963 211.562 432.912 211.562 431.616C211.562 430.32 210.638 429.27 209.497 429.27C208.357 429.27 207.432 430.32 207.432 431.616C207.432 432.912 208.357 433.963 209.497 433.963Z" fill="black"/>
<path opacity="0.1" d="M209.497 441.779C210.638 441.779 211.562 440.728 211.562 439.432C211.562 438.136 210.638 437.086 209.497 437.086C208.357 437.086 207.432 438.136 207.432 439.432C207.432 440.728 208.357 441.779 209.497 441.779Z" fill="black"/>
<path opacity="0.1" d="M209.497 449.595C210.638 449.595 211.562 448.544 211.562 447.249C211.562 445.953 210.638 444.902 209.497 444.902C208.357 444.902 207.432 445.953 207.432 447.249C207.432 448.544 208.357 449.595 209.497 449.595Z" fill="black"/>
<path opacity="0.1" d="M209.497 457.411C210.638 457.411 211.562 456.361 211.562 455.065C211.562 453.769 210.638 452.718 209.497 452.718C208.357 452.718 207.432 453.769 207.432 455.065C207.432 456.361 208.357 457.411 209.497 457.411Z" fill="black"/>
<path opacity="0.1" d="M220.447 355.253C220.145 355.536 219.778 355.716 219.39 355.772C219.002 355.827 218.607 355.756 218.253 355.567C217.899 355.378 217.599 355.078 217.389 354.703C217.179 354.327 217.067 353.892 217.067 353.447C217.064 352.857 217.261 352.289 217.617 351.86C217.884 352.13 218.144 352.425 218.404 352.704C219.117 353.531 219.793 354.375 220.447 355.253Z" fill="black"/>
<path opacity="0.1" d="M219.125 363.609C220.265 363.609 221.19 362.559 221.19 361.263C221.19 359.967 220.265 358.916 219.125 358.916C217.984 358.916 217.059 359.967 217.059 361.263C217.059 362.559 217.984 363.609 219.125 363.609Z" fill="black"/>
<path opacity="0.1" d="M219.125 371.426C220.265 371.426 221.19 370.375 221.19 369.079C221.19 367.783 220.265 366.732 219.125 366.732C217.984 366.732 217.059 367.783 217.059 369.079C217.059 370.375 217.984 371.426 219.125 371.426Z" fill="black"/>
<path opacity="0.1" d="M219.125 379.242C220.265 379.242 221.19 378.191 221.19 376.895C221.19 375.599 220.265 374.549 219.125 374.549C217.984 374.549 217.059 375.599 217.059 376.895C217.059 378.191 217.984 379.242 219.125 379.242Z" fill="black"/>
<path opacity="0.1" d="M219.125 387.058C220.265 387.058 221.19 386.007 221.19 384.711C221.19 383.415 220.265 382.365 219.125 382.365C217.984 382.365 217.059 383.415 217.059 384.711C217.059 386.007 217.984 387.058 219.125 387.058Z" fill="black"/>
<path opacity="0.1" d="M219.125 394.874C220.265 394.874 221.19 393.823 221.19 392.527C221.19 391.231 220.265 390.181 219.125 390.181C217.984 390.181 217.059 391.231 217.059 392.527C217.059 393.823 217.984 394.874 219.125 394.874Z" fill="black"/>
<path opacity="0.1" d="M219.125 402.69C220.265 402.69 221.19 401.639 221.19 400.343C221.19 399.047 220.265 397.997 219.125 397.997C217.984 397.997 217.059 399.047 217.059 400.343C217.059 401.639 217.984 402.69 219.125 402.69Z" fill="black"/>
<path opacity="0.1" d="M219.125 410.514C220.265 410.514 221.19 409.464 221.19 408.168C221.19 406.872 220.265 405.821 219.125 405.821C217.984 405.821 217.059 406.872 217.059 408.168C217.059 409.464 217.984 410.514 219.125 410.514Z" fill="black"/>
<path opacity="0.1" d="M219.125 418.331C220.265 418.331 221.19 417.28 221.19 415.984C221.19 414.688 220.265 413.638 219.125 413.638C217.984 413.638 217.059 414.688 217.059 415.984C217.059 417.28 217.984 418.331 219.125 418.331Z" fill="black"/>
<path opacity="0.1" d="M219.125 426.147C220.265 426.147 221.19 425.096 221.19 423.8C221.19 422.504 220.265 421.454 219.125 421.454C217.984 421.454 217.059 422.504 217.059 423.8C217.059 425.096 217.984 426.147 219.125 426.147Z" fill="black"/>
<path opacity="0.1" d="M219.125 433.963C220.265 433.963 221.19 432.912 221.19 431.616C221.19 430.32 220.265 429.27 219.125 429.27C217.984 429.27 217.059 430.32 217.059 431.616C217.059 432.912 217.984 433.963 219.125 433.963Z" fill="black"/>
<path opacity="0.1" d="M219.125 441.779C220.265 441.779 221.19 440.728 221.19 439.432C221.19 438.136 220.265 437.086 219.125 437.086C217.984 437.086 217.059 438.136 217.059 439.432C217.059 440.728 217.984 441.779 219.125 441.779Z" fill="black"/>
<path opacity="0.1" d="M219.125 449.595C220.265 449.595 221.19 448.544 221.19 447.249C221.19 445.953 220.265 444.902 219.125 444.902C217.984 444.902 217.059 445.953 217.059 447.249C217.059 448.544 217.984 449.595 219.125 449.595Z" fill="black"/>
<path opacity="0.1" d="M220.989 454.052C220.203 455.179 219.363 456.256 218.471 457.276C218.146 457.154 217.853 456.942 217.618 456.66C217.384 456.377 217.214 456.033 217.125 455.658C217.036 455.282 217.031 454.888 217.11 454.51C217.188 454.132 217.348 453.781 217.575 453.491C217.802 453.2 218.089 452.978 218.41 452.845C218.731 452.711 219.077 452.67 219.415 452.726C219.754 452.782 220.075 452.932 220.349 453.163C220.624 453.395 220.844 453.7 220.989 454.052Z" fill="black"/>
<path d="M194.477 426.923H192.872C190.657 426.923 188.861 428.964 188.861 431.481V527.106C188.861 529.623 190.657 531.664 192.872 531.664H194.477C196.692 531.664 198.488 529.623 198.488 527.106V431.481C198.488 428.964 196.692 426.923 194.477 426.923Z" fill="#54576B"/>
<path d="M221.531 517.594H165.818C162.967 517.594 160.655 520.22 160.655 523.46V525.798C160.655 529.038 162.967 531.664 165.818 531.664H221.531C224.383 531.664 226.694 529.038 226.694 525.798V523.46C226.694 520.22 224.383 517.594 221.531 517.594Z" fill="#54576B"/>
<path opacity="0.1" d="M194.477 426.923H192.872C190.657 426.923 188.861 428.964 188.861 431.481V527.106C188.861 529.623 190.657 531.664 192.872 531.664H194.477C196.692 531.664 198.488 529.623 198.488 527.106V431.481C198.488 428.964 196.692 426.923 194.477 426.923Z" fill="black"/>
<path opacity="0.1" d="M221.531 517.594H165.818C162.967 517.594 160.655 520.22 160.655 523.46V525.798C160.655 529.038 162.967 531.664 165.818 531.664H221.531C224.383 531.664 226.694 529.038 226.694 525.798V523.46C226.694 520.22 224.383 517.594 221.531 517.594Z" fill="black"/>
<path d="M195.851 426.923H194.247C192.031 426.923 190.235 428.964 190.235 431.481V527.106C190.235 529.623 192.031 531.664 194.247 531.664H195.851C198.067 531.664 199.863 529.623 199.863 527.106V431.481C199.863 428.964 198.067 426.923 195.851 426.923Z" fill="#54576B"/>
<path d="M222.906 517.594H167.192C164.341 517.594 162.029 520.22 162.029 523.46V525.798C162.029 529.038 164.341 531.664 167.192 531.664H222.906C225.757 531.664 228.068 529.038 228.068 525.798V523.46C228.068 520.22 225.757 517.594 222.906 517.594Z" fill="#54576B"/>
<path d="M252.397 435.786C247.234 448.55 238.957 459.363 228.549 466.943C218.141 474.523 206.037 478.552 193.675 478.552C181.312 478.552 169.209 474.523 158.8 466.943C148.392 459.363 140.116 448.55 134.953 435.786C128.111 424.636 122.131 402.403 122.131 405.045C122.131 415.72 123.982 426.291 127.577 436.154C131.173 446.017 136.442 454.979 143.086 462.527C149.729 470.076 157.616 476.064 166.296 480.149C174.976 484.235 184.279 486.337 193.675 486.337C203.07 486.337 212.373 484.235 221.053 480.149C229.733 476.064 237.62 470.076 244.264 462.527C250.907 454.979 256.177 446.017 259.772 436.154C263.368 426.291 265.218 415.72 265.218 405.045C265.218 402.403 259.238 424.636 252.397 435.786Z" fill="#54576B"/>
<path d="M193.675 323.744C182.134 323.747 170.765 326.924 160.54 333.003C150.314 339.083 141.535 347.884 134.953 358.655C131.029 368.289 129.001 378.78 129.01 389.396C129.01 392.007 129.131 394.616 129.374 397.212C130.991 379.113 138.463 362.341 150.342 350.144C162.221 337.948 177.661 331.195 193.671 331.195C209.681 331.195 225.121 337.948 237 350.144C248.879 362.341 256.351 379.113 257.968 397.212C258.211 394.616 258.332 392.007 258.332 389.396C258.341 378.78 256.313 368.289 252.389 358.655C245.807 347.885 237.03 339.085 226.805 333.005C216.581 326.926 205.214 323.749 193.675 323.744Z" fill="#54576B"/>
<path opacity="0.1" d="M195.049 440.209C196.567 440.209 197.797 438.811 197.797 437.086C197.797 435.361 196.567 433.963 195.049 433.963C193.531 433.963 192.3 435.361 192.3 437.086C192.3 438.811 193.531 440.209 195.049 440.209Z" fill="black"/>
<path opacity="0.2" d="M324.029 514.47C324.6 514.47 325.062 513.945 325.062 513.297C325.062 512.649 324.6 512.124 324.029 512.124C323.459 512.124 322.997 512.649 322.997 513.297C322.997 513.945 323.459 514.47 324.029 514.47Z" fill="black"/>
<path d="M285.074 536.897C280.968 536.927 276.907 535.915 273.189 533.935C259.327 526.524 252.493 527.461 242.153 528.87C232.462 530.388 222.662 530.792 212.9 530.077C210.177 529.934 207.517 529.101 205.114 527.641C202.711 526.181 200.625 524.129 199.008 521.637C183.676 499.015 193.935 439.458 194.38 436.934C194.426 436.742 194.535 436.578 194.683 436.473C194.832 436.369 195.009 436.332 195.181 436.371C195.352 436.409 195.504 436.52 195.607 436.681C195.709 436.842 195.754 437.041 195.732 437.238C195.628 437.846 185.147 498.619 200.1 520.674C201.598 522.992 203.532 524.901 205.762 526.26C207.992 527.62 210.461 528.396 212.989 528.533C222.657 529.237 232.363 528.833 241.96 527.326C252.538 525.874 259.528 524.912 273.746 532.517C296.425 544.646 323.004 513.795 323.264 513.483C323.395 513.354 323.563 513.286 323.736 513.292C323.908 513.298 324.073 513.377 324.197 513.513C324.321 513.65 324.395 513.834 324.406 514.03C324.416 514.226 324.361 514.419 324.252 514.572C324.052 514.842 305.042 536.897 285.074 536.897Z" fill="#DFE6F5"/>
<path d="M310.346 121.808C298.988 98.5539 275.93 82.6093 249.433 82.6093C211.696 82.6093 180.987 114.87 180.987 154.524H176.136C176.136 111.856 209.007 77.1397 249.396 77.1397C272.78 77.1397 293.639 88.7711 307.063 106.851C308.162 110.903 309.001 115.047 309.833 119.183C310.019 120.069 310.19 120.939 310.346 121.808Z" fill="#535461"/>
<path d="M186.373 131.675H192.709V181.476H186.373C181.534 181.476 176.893 179.291 173.472 175.404C170.05 171.516 168.128 166.243 168.128 160.745V152.456C168.122 149.73 168.59 147.029 169.504 144.508C170.418 141.987 171.761 139.695 173.456 137.765C175.151 135.835 177.164 134.303 179.38 133.258C181.597 132.213 183.973 131.675 186.373 131.675Z" fill="#DFE6F5"/>
<path d="M193.608 131.717H191.81C189.336 131.717 187.331 133.996 187.331 136.807V176.386C187.331 179.197 189.336 181.476 191.81 181.476H193.608C196.082 181.476 198.087 179.197 198.087 176.386V136.807C198.087 133.996 196.082 131.717 193.608 131.717Z" fill="#535461"/>
<path d="M595.636 489.486C595.636 489.486 583.839 484.945 578.164 496.753C576.667 499.955 575.905 503.534 575.949 507.16C575.993 510.785 576.842 514.339 578.417 517.492C582.131 525.148 589.827 535.091 604.416 534.205C616.762 533.454 620.87 522.751 621.985 512.791C622.412 509.056 621.988 505.26 620.754 501.765C619.52 498.27 617.517 495.194 614.937 492.83C612.357 490.467 609.286 488.896 606.018 488.267C602.751 487.639 599.396 487.974 596.275 489.241L595.636 489.486Z" fill="#4DA8DA"/>
<path opacity="0.1" d="M580.913 518.556C579.338 515.402 578.489 511.848 578.445 508.223C578.401 504.598 579.163 501.019 580.66 497.817C586.335 486 598.132 490.549 598.132 490.549L598.734 490.305C603.231 488.455 608.175 488.582 612.595 490.659C610.156 489.009 607.425 487.994 604.599 487.687C601.773 487.381 598.922 487.79 596.252 488.887L595.651 489.131C595.651 489.131 583.854 484.59 578.179 496.399C576.682 499.6 575.92 503.18 575.964 506.805C576.008 510.43 576.857 513.984 578.432 517.138C580.89 522.202 585.058 528.203 591.803 531.487C587.2 528.39 583.433 523.917 580.913 518.556Z" fill="white"/>
<path opacity="0.2" d="M589.545 495.167C589.545 495.167 593.92 499.074 604.535 495.167H589.545Z" fill="black"/>
<path d="M588.609 466.772C588.609 466.772 596.104 489.84 595.48 495.876L601.423 495.167C601.423 495.167 591.387 474.934 593.92 466.772H588.609Z" fill="#4DA8DA"/>
<path opacity="0.2" d="M588.609 466.772C588.609 466.772 596.104 489.84 595.48 495.876L601.423 495.167C601.423 495.167 591.387 474.934 593.92 466.772H588.609Z" fill="black"/>
<path d="M619.206 468.696C619.206 468.696 607.41 461.843 602.121 467.506C596.832 473.17 596.03 487.646 596.03 487.646C596.03 487.646 615.277 490.659 619.206 468.696Z" fill="#4DA8DA"/>
<path opacity="0.1" d="M619.206 468.696C619.206 468.696 607.41 461.843 602.121 467.506C596.832 473.17 596.03 487.646 596.03 487.646C596.03 487.646 615.277 490.659 619.206 468.696Z" fill="white"/>
<path d="M596.037 487.646C596.037 487.646 599.135 470.84 619.206 468.696" stroke="#4DA8DA" stroke-miterlimit="10"/>
</g>
<defs>
<linearGradient id="paint0_linear" x1="440.983" y1="595.822" x2="440.983" y2="55.6835" gradientUnits="userSpaceOnUse">
<stop stop-color="#808080" stop-opacity="0.25"/>
<stop offset="0.54" stop-color="#808080" stop-opacity="0.12"/>
<stop offset="1" stop-color="#808080" stop-opacity="0.1"/>
</linearGradient>
<clipPath id="clip0">
<rect width="847" height="655" fill="white"/>
</clipPath>
</defs>
</svg>
